<?xml version="1.0" encoding="UTF-8"?>
<svg width="108.45mm" height="136.02mm" version="1.1" viewBox="0 0 108.45 136.02" xmlns="http://www.w3.org/2000/svg">
 <g transform="translate(-38.547 -21.38)">
  <path d="m52.494 37.945-8.7024 9.461s5.9122 50.088 4.597 77.709c-0.73815 15.501-5.6895 24.574-5.6895 24.574l-4.1523 7.7148h108.11v-10.465h-91.664c1.6508-5.0678 3.4269-12.368 3.8535-21.326 1.4349-30.134-6.3477-87.668-6.3477-87.668z" style="color-rendering:auto;color:#000000;dominant-baseline:auto;fill:#4263ae;font-feature-settings:normal;font-variant-alternates:normal;font-variant-caps:normal;font-variant-east-asian:normal;font-variant-ligatures:normal;font-variant-numeric:normal;font-variant-position:normal;font-variation-settings:normal;image-rendering:auto;inline-size:0;isolation:auto;mix-blend-mode:normal;shape-margin:0;shape-padding:0;shape-rendering:auto;solid-color:#000000;stop-color:#000000;text-decoration-color:#000000;text-decoration-line:none;text-decoration-style:solid;text-indent:0;text-orientation:mixed;text-transform:none;white-space:normal"/>
  <path d="m65.937 28.07-8.7024 7.5097s7.0273 50.088 5.712 77.709c-0.73815 15.501-2.9019 24.574-2.9019 24.574l-2.201 7.7148 89.15 0.55752v-10.465l-74.66-0.55752c1.6508-5.0678 1.1969-12.368 1.6234-21.326 1.4349-30.134-8.0202-85.717-8.0202-85.717z" style="color-rendering:auto;color:#000000;dominant-baseline:auto;fill:#4263ae;font-feature-settings:normal;font-variant-alternates:normal;font-variant-caps:normal;font-variant-east-asian:normal;font-variant-ligatures:normal;font-variant-numeric:normal;font-variant-position:normal;font-variation-settings:normal;image-rendering:auto;inline-size:0;isolation:auto;mix-blend-mode:normal;shape-margin:0;shape-padding:0;shape-rendering:auto;solid-color:#000000;stop-color:#000000;text-decoration-color:#000000;text-decoration-line:none;text-decoration-style:solid;text-indent:0;text-orientation:mixed;text-transform:none;white-space:normal"/>
  <path d="m81.825 21.38-9.8159 6.6212s6.1413 49.928 6.5559 76.139c0.23873 15.095-2.065 22.022-2.065 22.022l-1.4316 7.0885 71.647 0.23351 0.27876-9.0577-59.388-0.79102c1.4918-4.6564 0.51214-11.643 0.90962-19.874 1.2968-26.851-6.6905-82.382-6.6905-82.382z" style="color-rendering:auto;color:#000000;dominant-baseline:auto;fill:#4263ae;font-feature-settings:normal;font-variant-alternates:normal;font-variant-caps:normal;font-variant-east-asian:normal;font-variant-ligatures:normal;font-variant-numeric:normal;font-variant-position:normal;font-variation-settings:normal;image-rendering:auto;inline-size:0;isolation:auto;mix-blend-mode:normal;shape-margin:0;shape-padding:0;shape-rendering:auto;solid-color:#000000;stop-color:#000000;text-decoration-color:#000000;text-decoration-line:none;text-decoration-style:solid;text-indent:0;text-orientation:mixed;text-transform:none;white-space:normal"/>
 </g>
</svg>
